<svg xmlns="http://www.w3.org/2000/svg" width="56" height="56">
    <path fill="#f4f3f2" fill-rule="evenodd" d="M38.724 29.149a888.51 888.51 0 0 0-.015 2.286h-2.26c-.007-.76-.007-1.52-.016-2.282l-2.268-.022v-2.275c.756-.009 1.509-.011 2.268-.015.004-.765.012-1.526.02-2.286h2.256c.004.76.007 1.525.015 2.286.755.006 1.514.006 2.268.015v2.275c-.754.007-1.509.011-2.268.018zm-17.677 6.319c-3.107-1.193-5.306-4.499-5.044-7.871.068-4.124 3.831-7.736 7.922-7.599 1.962-.091 3.804.769 5.307 1.977a28.801 28.801 0 0 1-2.015 2.102c-1.805-1.257-4.372-1.617-6.177-.164-2.582 1.8-2.7 6.05-.216 7.988 2.416 2.21 6.982 1.113 7.649-2.27-1.512-.023-3.031 0-4.543-.05-.005-.909-.008-1.82-.005-2.729 2.531-.007 5.06-.011 7.593.007.151 2.141-.129 4.42-1.434 6.19-1.975 2.801-5.942 3.619-9.037 2.419z"/>
</svg>
