<svg xmlns="http://www.w3.org/2000/svg" width="56" height="56">
    <path fill="#f4f3f2" fill-rule="evenodd" d="M37 22.391a7.334 7.334 0 0 1-2.18.639 4.008 4.008 0 0 0 1.669-2.238 7.242 7.242 0 0 1-2.408.981c-.691-.783-1.68-1.278-2.771-1.278-2.448 0-4.248 2.434-3.695 4.963-3.155-.166-5.95-1.775-7.821-4.221-.998 1.815-.514 4.191 1.175 5.397a3.608 3.608 0 0 1-1.72-.506c-.041 1.87 1.215 3.626 3.044 4.015a3.65 3.65 0 0 1-1.714.07c.487 1.607 1.884 2.773 3.545 2.804-1.597 1.327-3.605 1.922-5.618 1.671 1.679 1.146 3.671 1.816 5.814 1.816 7.046 0 11.025-6.339 10.785-12.018A7.982 7.982 0 0 0 37 22.391z"/>
</svg>
